<svg width="938" height="653" viewBox="0 0 938 653" fill="none" xmlns="http://www.w3.org/2000/svg">
<g clip-path="url(#clip0_38_7)">
<path d="M741.924 26.9756L737.826 364.665L560.76 450.819L564.857 113.131L741.924 26.9756Z" fill="#F2F2F2"/>
<path d="M795.731 0L928.039 271.317L748.516 358.669L752.613 20.9797L795.731 0Z" fill="#F2F2F2"/>
<path d="M-0.000518588 381.155L357.347 207.281L353.249 544.969L132.308 652.472L-0.000518588 381.155Z" fill="#F2F2F2"/>
<path d="M548.851 113.131L544.753 450.819L367.686 536.974L371.783 199.286L548.851 113.131Z" fill="#F2F2F2"/>
<path d="M487.306 382.684L492.308 494.608C492.308 494.608 479.303 600.536 482.304 603.534C485.305 606.532 493.309 612.528 487.306 619.523C481.304 626.518 459.294 631.515 458.294 627.517C457.293 623.52 455.292 509.598 455.292 509.598L448.289 374.689L487.306 382.684Z" fill="#2F2E41"/>
<path opacity="0.2" d="M487.306 382.684L492.308 494.608C492.308 494.608 479.303 600.536 482.304 603.534C485.305 606.532 493.309 612.528 487.306 619.523C481.304 626.518 459.294 631.515 458.294 627.517C457.293 623.52 455.292 509.598 455.292 509.598L448.289 374.689L487.306 382.684Z" fill="black"/>
<path d="M482.304 617.524C482.304 617.524 507.315 636.511 510.316 636.511C513.317 636.511 540.329 645.505 521.321 649.502C502.313 653.5 456.293 651.501 455.292 645.505C454.292 639.509 458.294 621.313 458.294 621.313L482.304 617.524Z" fill="#2F2E41"/>
<path opacity="0.2" d="M482.304 617.524C482.304 617.524 507.315 636.511 510.316 636.511C513.317 636.511 540.329 645.505 521.321 649.502C502.313 653.5 456.293 651.501 455.292 645.505C454.292 639.509 458.294 621.313 458.294 621.313L482.304 617.524Z" fill="black"/>
<path d="M544.331 298.741C544.331 298.741 555.335 302.738 555.335 305.736C555.335 308.734 565.34 346.708 567.341 348.707C569.341 350.706 570.342 359.7 570.342 359.7C570.342 359.7 580.346 382.684 578.345 382.684C576.344 382.684 559.337 378.687 558.337 382.684C557.336 386.681 549.333 357.701 549.333 357.701L532.326 323.724L544.331 298.741Z" fill="#6C63FF"/>
<path d="M578.345 386.681C578.345 386.681 575.344 408.666 567.34 410.665C559.337 412.664 567.34 382.684 567.34 382.684L578.345 386.681Z" fill="#FFB8B8"/>
<path d="M552.334 286.749C552.334 286.749 546.332 299.74 543.33 306.736C540.329 313.731 512.317 288.748 512.317 288.748C512.317 288.748 527.323 277.755 527.323 272.759C527.323 267.762 552.334 286.749 552.334 286.749Z" fill="#FFB8B8"/>
<path d="M840.919 611.584C834.21 636.357 811.229 651.7 811.229 651.7C811.229 651.7 799.126 626.877 805.836 602.103C812.545 577.33 835.525 561.987 835.525 561.987C835.525 561.987 847.628 586.81 840.919 611.584Z" fill="#3F3D56"/>
<path d="M831.06 606.259C812.65 624.161 810.402 651.68 810.402 651.68C810.402 651.68 838.002 650.175 856.412 632.273C874.822 614.372 877.071 586.852 877.071 586.852C877.071 586.852 849.471 588.358 831.06 606.259Z" fill="#6C63FF"/>
<path d="M602.356 652.5C620.361 652.5 637.963 647.167 652.934 637.174C667.906 627.182 679.574 612.979 686.465 596.363C693.355 579.746 695.158 561.461 691.645 543.821C688.133 526.181 679.462 509.977 666.73 497.259C653.998 484.541 637.776 475.88 620.116 472.371C602.457 468.863 584.152 470.663 567.516 477.546C550.881 484.429 536.663 496.085 526.659 511.04C516.656 525.994 511.316 543.576 511.316 561.562C511.344 585.672 520.944 608.787 538.011 625.835C555.079 642.883 578.219 652.473 602.356 652.5ZM602.356 472.623C619.966 472.623 637.18 477.839 651.823 487.612C666.465 497.385 677.877 511.275 684.616 527.527C691.355 543.778 693.119 561.661 689.683 578.913C686.247 596.166 677.767 612.013 665.315 624.452C652.863 636.89 636.998 645.361 619.726 648.793C602.454 652.224 584.552 650.463 568.282 643.732C552.012 637 538.107 625.6 528.323 610.974C518.539 596.348 513.317 579.153 513.317 561.562C513.344 537.982 522.733 515.376 539.425 498.702C556.118 482.028 578.749 472.649 602.356 472.623Z" fill="#2F2E41"/>
<path d="M322.235 652.5C340.241 652.5 357.843 647.167 372.814 637.174C387.785 627.182 399.454 612.979 406.344 596.363C413.235 579.746 415.038 561.461 411.525 543.821C408.012 526.181 399.342 509.977 386.61 497.259C373.878 484.541 357.656 475.88 339.996 472.371C322.336 468.863 304.031 470.663 287.396 477.546C270.761 484.429 256.542 496.085 246.539 511.04C236.535 525.994 231.196 543.576 231.196 561.562C231.223 585.672 240.824 608.787 257.891 625.835C274.958 642.883 298.098 652.473 322.235 652.5ZM322.235 472.623C339.845 472.623 357.06 477.839 371.702 487.612C386.345 497.385 397.757 511.275 404.496 527.527C411.235 543.778 412.998 561.661 409.563 578.913C406.127 596.166 397.647 612.013 385.195 624.452C372.743 636.89 356.877 645.361 339.606 648.793C322.334 652.224 304.431 650.463 288.162 643.732C271.892 637 257.986 625.6 248.203 610.974C238.419 596.348 233.197 579.153 233.197 561.562C233.223 537.982 242.613 515.375 259.305 498.702C275.997 482.028 298.629 472.649 322.235 472.623Z" fill="#2F2E41"/>
<path d="M602.356 567.558C599.04 567.558 596.353 564.874 596.353 561.562C596.353 558.251 599.04 555.566 602.356 555.566C605.671 555.566 608.358 558.251 608.358 561.562C608.358 564.874 605.671 567.558 602.356 567.558Z" fill="#2F2E41"/>
<path d="M320.234 567.558C316.919 567.558 314.232 564.874 314.232 561.562C314.232 558.251 316.919 555.566 320.234 555.566C323.549 555.566 326.237 558.251 326.237 561.562C326.237 564.874 323.549 567.558 320.234 567.558Z" fill="#2F2E41"/>
<path d="M593.432 552.961L595.272 552.176L542.985 429.639L394.711 432.66L394.424 433.11L321.393 547.033L323.077 548.111L395.822 434.638L541.674 431.664L593.432 552.961Z" fill="#2F2E41"/>
<path d="M437.66 575.736L399.23 440.372L397.305 440.917L434.908 573.371L334.366 560.57L334.114 562.554L437.66 575.736Z" fill="#2F2E41"/>
<path d="M546.618 459.931L548.046 461.331L445.002 566.259L443.574 564.86L546.618 459.931Z" fill="#2F2E41"/>
<path d="M389.233 408.402L395.227 430.39L393.296 430.915L387.303 408.928L389.233 408.402Z" fill="#2F2E41"/>
<path d="M539.352 423.877L541.305 423.435L536.58 402.671H553.334V389.68H551.334V400.672H534.073L539.352 423.877Z" fill="#2F2E41"/>
<path d="M425.28 388.68C425.28 388.68 425.28 382.684 412.274 385.682C399.268 388.68 359.251 396.674 356.25 395.675C353.249 394.676 354.249 401.671 367.255 404.669C380.26 407.667 395.267 400.672 398.268 398.673C401.269 396.674 425.28 388.68 425.28 388.68Z" fill="#2F2E41"/>
<path d="M461.295 567.558H487.306V577.551H461.295V567.558Z" fill="#6C63FF"/>
<path d="M436.284 594.54C440.242 594.54 444.11 593.368 447.401 591.171C450.691 588.975 453.256 585.854 454.77 582.202C456.284 578.55 456.681 574.531 455.908 570.654C455.136 566.777 453.231 563.216 450.433 560.421C447.634 557.626 444.069 555.722 440.188 554.951C436.307 554.18 432.283 554.576 428.627 556.088C424.971 557.601 421.846 560.163 419.648 563.449C417.449 566.736 416.276 570.6 416.276 574.553C416.282 579.852 418.392 584.932 422.143 588.679C425.894 592.426 430.98 594.534 436.284 594.54ZM436.284 556.566C439.846 556.566 443.328 557.621 446.289 559.597C449.25 561.574 451.558 564.383 452.921 567.67C454.284 570.957 454.641 574.573 453.946 578.063C453.251 581.552 451.536 584.757 449.018 587.273C446.499 589.788 443.291 591.501 439.797 592.195C436.304 592.89 432.684 592.533 429.393 591.172C426.103 589.81 423.29 587.505 421.311 584.547C419.333 581.589 418.277 578.111 418.277 574.553C418.282 569.784 420.181 565.212 423.557 561.84C426.933 558.468 431.51 556.571 436.284 556.566Z" fill="#2F2E41"/>
<path d="M543.33 296.743C530.07 296.743 519.32 286.005 519.32 272.759C519.32 259.513 530.07 248.775 543.33 248.775C556.591 248.775 567.341 259.513 567.341 272.759C567.341 286.005 556.591 296.743 543.33 296.743Z" fill="#FFB8B8"/>
<path d="M467.298 384.683C467.298 384.683 536.327 424.655 535.327 437.647C534.326 450.638 482.304 521.589 482.304 521.589C482.304 521.589 478.302 542.575 474.301 542.575C470.299 542.575 445.288 551.569 444.288 545.573C443.287 539.577 452.291 532.582 451.291 528.585C450.29 524.587 495.31 451.637 495.31 451.637C495.31 451.637 398.961 415.662 419.123 384.683C439.286 353.704 467.298 384.683 467.298 384.683Z" fill="#2F2E41"/>
<path d="M465.297 538.578C465.297 538.578 477.302 541.576 479.303 545.573C481.304 549.57 516.319 562.561 506.314 565.559C496.31 568.557 438.285 569.557 436.284 567.558C434.283 565.559 436.284 542.363 444.288 542.469C452.291 542.575 461.295 545.573 465.297 538.578Z" fill="#2F2E41"/>
<path d="M543.33 309.734L520.821 282.252C520.821 282.252 495.31 274.757 484.305 289.747C473.3 304.737 443.287 341.712 433.283 349.706C423.279 357.701 409.273 388.68 414.275 389.679C419.277 390.679 447.289 378.687 458.294 386.681C469.299 394.676 490.308 395.675 491.308 391.678C492.308 387.681 552.334 320.726 552.334 311.732C552.334 302.738 545.938 300.809 545.938 300.809L543.33 309.734Z" fill="#6C63FF"/>
<path d="M531.24 389.184L561.423 378.525C562.986 377.973 564.701 378.791 565.253 380.352C565.806 381.913 564.987 383.626 563.424 384.178L533.241 394.837C531.678 395.389 529.963 394.571 529.411 393.01C528.858 391.449 529.677 389.736 531.24 389.184Z" fill="#2F2E41"/>
<path d="M599.354 376.688C599.354 376.688 634.369 386.681 631.368 397.674C628.367 408.666 596.353 384.683 596.353 384.683L599.354 376.688Z" fill="#FFB8B8"/>
<path d="M508.315 289.747C508.315 289.747 522.321 301.739 525.322 315.73C528.324 329.72 543.33 354.703 543.33 354.703L604.356 374.689C604.356 374.689 608.358 393.677 602.356 393.677C596.353 393.677 529.324 379.686 527.323 376.688C525.322 373.69 482.304 316.729 482.304 316.729C482.304 316.729 478.302 285.75 508.315 289.747Z" fill="#6C63FF"/>
<path d="M558.243 244.999C558.835 245.508 559.543 245.863 560.305 246.033C560.688 246.101 561.082 246.015 561.401 245.794C561.721 245.573 561.94 245.235 562.01 244.853C562.451 246.075 563.271 247.125 564.35 247.851C565.496 248.447 567.267 247.947 567.432 246.667C567.6 247.639 568.03 248.546 568.677 249.291C569.014 249.647 569.478 249.856 569.969 249.873C570.46 249.889 570.937 249.712 571.297 249.379C570.795 252.117 571.105 254.934 570.948 257.713C570.79 260.493 570.048 263.44 567.945 265.268C564.879 267.933 560.269 267.276 556.235 266.771C555.625 266.643 554.992 266.677 554.4 266.871C552.89 267.514 552.958 269.613 552.938 271.253C552.815 274.13 551.675 276.87 549.721 278.987C547.767 281.104 545.125 282.46 542.264 282.816C540.663 283.063 539.03 282.664 537.723 281.709C536.578 280.739 535.993 279.159 534.68 278.431C532.546 277.246 529.957 278.974 528.397 280.85C526.836 282.726 525.298 285.033 522.88 285.377C519.683 285.831 517.248 282.576 516.053 279.579C514.404 275.378 513.615 270.891 513.73 266.38C513.846 261.87 514.864 257.428 516.725 253.317C523.402 238.78 546.208 236.481 558.243 244.999Z" fill="#2F2E41"/>
<path d="M135.766 652.459L137.544 651.542C114.452 606.948 126.801 549.037 141.225 508.307C151.019 480.932 163.512 454.595 178.519 429.686L176.827 428.619C161.743 453.654 149.185 480.125 139.339 507.64C124.782 548.742 112.347 607.231 135.766 652.459Z" fill="#2F2E41"/>
<path d="M118.641 428.977L131.621 499.933L129.653 500.292L116.673 429.336L118.641 428.977Z" fill="#2F2E41"/>
<path d="M204.952 489.43L206.417 490.792L139.389 562.743L137.924 561.381L204.952 489.43Z" fill="#2F2E41"/>
<path d="M84.4514 568.466L118.45 615.445L116.828 616.616L82.8296 569.637L84.4514 568.466Z" fill="#2F2E41"/>
<path d="M112.645 410.165C107.12 410.165 102.641 405.691 102.641 400.172C102.641 394.653 107.12 390.179 112.645 390.179C118.17 390.179 122.649 394.653 122.649 400.172C122.649 405.691 118.17 410.165 112.645 410.165Z" fill="#6C63FF"/>
<path d="M221.692 487.113C216.167 487.113 211.688 482.639 211.688 477.12C211.688 471.601 216.167 467.127 221.692 467.127C227.217 467.127 231.696 471.601 231.696 477.12C231.696 482.639 227.217 487.113 221.692 487.113Z" fill="#3F3D56"/>
<path d="M177.673 497.106C172.148 497.106 167.669 492.632 167.669 487.113C167.669 481.594 172.148 477.12 177.673 477.12C183.198 477.12 187.677 481.594 187.677 487.113C187.677 492.632 183.198 497.106 177.673 497.106Z" fill="#3F3D56"/>
<path d="M197.682 536.08C192.156 536.08 187.677 531.605 187.677 526.086C187.677 520.567 192.156 516.093 197.682 516.093C203.207 516.093 207.686 520.567 207.686 526.086C207.686 531.605 203.207 536.08 197.682 536.08Z" fill="#6C63FF"/>
<path d="M72.6278 561.063C67.1026 561.063 62.6235 556.588 62.6235 551.069C62.6235 545.55 67.1026 541.076 72.6278 541.076C78.153 541.076 82.6321 545.55 82.6321 551.069C82.6321 556.588 78.153 561.063 72.6278 561.063Z" fill="#3F3D56"/>
<path d="M105.642 572.055C100.117 572.055 95.6376 567.581 95.6376 562.062C95.6376 556.543 100.117 552.069 105.642 552.069C111.167 552.069 115.646 556.543 115.646 562.062C115.646 567.581 111.167 572.055 105.642 572.055Z" fill="#3F3D56"/>
<path d="M82.6322 604.033C77.1069 604.033 72.6279 599.559 72.6279 594.04C72.6279 588.521 77.1069 584.047 82.6322 584.047C88.1574 584.047 92.6365 588.521 92.6365 594.04C92.6365 599.559 88.1574 604.033 82.6322 604.033Z" fill="#3F3D56"/>
<path d="M187.677 422.157C182.152 422.157 177.673 417.683 177.673 412.164C177.673 406.645 182.152 402.171 187.677 402.171C193.203 402.171 197.682 406.645 197.682 412.164C197.682 417.683 193.203 422.157 187.677 422.157Z" fill="#3F3D56"/>
<path d="M34.6114 651.001H938V653H34.6114V651.001Z" fill="#2F2E41"/>
<path d="M782.998 444.069L867.905 395.103L916.926 479.915L832.019 528.882L782.998 444.069Z" fill="#F2F2F2"/>
<path d="M829.953 545.935C834.306 545.935 838.562 544.646 842.181 542.23C845.801 539.814 848.622 536.381 850.288 532.364C851.953 528.346 852.389 523.926 851.54 519.661C850.691 515.396 848.595 511.479 845.516 508.404C842.438 505.33 838.517 503.236 834.247 502.388C829.978 501.539 825.552 501.975 821.531 503.639C817.509 505.303 814.072 508.121 811.653 511.736C809.235 515.351 807.944 519.602 807.944 523.95C807.951 529.779 810.272 535.367 814.398 539.489C818.524 543.61 824.118 545.929 829.953 545.935ZM829.953 503.964C833.911 503.964 837.779 505.136 841.07 507.332C844.36 509.528 846.925 512.65 848.439 516.302C849.953 519.954 850.35 523.972 849.578 527.849C848.806 531.726 846.9 535.288 844.102 538.083C841.303 540.878 837.738 542.781 833.857 543.553C829.976 544.324 825.953 543.928 822.296 542.415C818.64 540.902 815.515 538.341 813.317 535.054C811.118 531.767 809.945 527.903 809.945 523.95C809.951 518.651 812.061 513.571 815.812 509.824C819.563 506.077 824.649 503.97 829.953 503.964Z" fill="#3F3D56"/>
</g>
<defs>
<clipPath id="clip0_38_7">
<rect width="938" height="653" fill="white" transform="matrix(-1 0 0 1 938 0)"/>
</clipPath>
</defs>
</svg>
